General

Complete name                    : Face.Off {hindi-eng-ita}TRIPLE.AUDIO.BRRip.aaaevilacharya.mkv
Format                           : Matroska
File size                        : 974 MiB
Duration                         : 2h 13mn
Overall bit rate                 : 1 022 Kbps
Movie name                       : aaaevilacharya{TiRG}
Encoded date                     : UTC 2010-12-01 19:12:34
Writing application              : mkvmerge v2.9.8 ('C'est le bon') built on Aug 13 2009 12:49:06
Writing library                  : libebml v0.7.7 + libmatroska v0.8.1

Video
ID                               : 1
Format                           : AVC
Format/Info                      : Advanced Video Codec
Format profile                   : Main@L3.0
Format settings, CABAC           : Yes
Format settings, ReFrames        : 2 frames
Muxing mode                      : Container profile=Unknown@3.0
Codec ID                         : V_MPEG4/ISO/AVC
Duration                         : 2h 13mn
Bit rate                         : 732 Kbps
Width                            : 912 pixels
Height                           : 368 pixels
Display aspect ratio             : 2.35:1
Frame rate                       : 25.000 fps
Color space                      : YUV
Chroma subsampling               : 4:2:0
Bit depth                        : 8 bits
Scan type                        : Progressive
Bits/(Pixel*Frame)               : 0.087
Stream size                      : 680 MiB (70%)
Title                            : aaaevilacharya{TiRG}
Writing library                  : x264 core 79
Encoding settings                : cabac=1 / ref=2 / deblock=1:0:0 / analyse=0x1:0x111 / me=hex / subme=6 / psy=1 / psy_rd=1.0:0.0 / mixed_ref=0 / me_range=16 / chroma_me=1 / trellis=0 / 8x8dct=0 / cqm=0 / deadzone=21,11 / chroma_qp_offset=-2 / threads=3 / nr=0 / decimate=1 / mbaff=0 / constrained_intra=0 / bframes=2 / b_pyramid=0 / b_adapt=1 / b_bias=0 / direct=1 / wpredb=0 / wpredp=2 / keyint=250 / keyint_min=25 / scenecut=40 / rc_lookahead=40 / rc=abr / mbtree=1 / bitrate=732 / ratetol=1.0 / qcomp=0.60 / qpmin=10 / qpmax=51 / qpstep=4 / ip_ratio=1.40 / aq=1:1.00
Language                         : English
Color primaries                  : BT.601-6 525, BT.1358 525, BT.1700 NTSC, SMPTE 170M
Transfer characteristics         : BT.709-5, BT.1361
Matrix coefficients              : BT.601-6 525, BT.1358 525, BT.1700 NTSC, SMPTE 170M

Audio #1
ID                               : 2
Format                           : MPEG Audio
Format version                   : Version 1
Format profile                   : Layer 3
Mode                             : Joint stereo
Mode extension                   : MS Stereo
Codec ID                         : A_MPEG/L3
Codec ID/Hint                    : MP3
Duration                         : 2h 13mn
Bit rate mode                    : Constant
Bit rate                         : 96.0 Kbps
Channel(s)                       : 2 channels
Sampling rate                    : 32.0 KHz
Stream size                      : 91.5 MiB (9%)
Title                            : aaaevilacharya
Writing library                  : LAME3.97
Language                         : Hindi

Audio #2
ID                               : 3
Format                           : MPEG Audio
Format version                   : Version 1
Format profile                   : Layer 3
Mode                             : Joint stereo
Mode extension                   : MS Stereo
Codec ID                         : A_MPEG/L3
Codec ID/Hint                    : MP3
Duration                         : 2h 13mn
Bit rate mode                    : Constant
Bit rate                         : 96.0 Kbps
Channel(s)                       : 2 channels
Sampling rate                    : 32.0 KHz
Stream size                      : 91.5 MiB (9%)
Title                            : aaaevilacharya
Writing library                  : LAME3.97
Language                         : English

Audio #3
ID                               : 4
Format                           : MPEG Audio
Format version                   : Version 1
Format profile                   : Layer 3
Mode                             : Joint stereo
Mode extension                   : MS Stereo
Codec ID                         : A_MPEG/L3
Codec ID/Hint                    : MP3
Duration                         : 2h 13mn
Bit rate mode                    : Constant
Bit rate                         : 96.0 Kbps
Channel(s)                       : 2 channels
Sampling rate                    : 32.0 KHz
Stream size                      : 91.5 MiB (9%)
Title                            : aaaevilacharya
Writing library                  : LAME3.97
Language                         : Italian

SCREENSHOTS

 
http://img255.imageshack.us/img255/8925/faceoffhindiengitatripl.jpg 
http://img576.imageshack.us/img576/8925/faceoffhindiengitatripl.jpg 
http://img560.imageshack.us/img560/8925/faceoffhindiengitatripl.jpg 
http://img545.imageshack.us/img545/8925/faceoffhindiengitatripl.jpg 
http://img832.imageshack.us/img832/8925/faceoffhindiengitatripl.jpg 
http://img842.imageshack.us/img842/8925/faceoffhindiengitatripl.jpg 
http://img15.imageshack.us/img15/8925/faceoffhindiengitatripl.jpg 
http://img252.imageshack.us/img252/8925/faceoffhindiengitatripl.jpg 
http://img691.imageshack.us/img691/8925/faceoffhindiengitatripl.jpg 
http://img222.imageshack.us/img222/8925/faceoffhindiengitatripl.jpg 
http://img823.imageshack.us/img823/8925/faceoffhindiengitatripl.jpg 
http://img593.imageshack.us/img593/8925/faceoffhindiengitatripl.jpg 
http://img560.imageshack.us/img560/5093/faceoff1997frontcover72.jpg
